<?xml version="1.0" encoding="UTF-8" standalone="no"?>
<svg
   xmlns:dc="http://purl.org/dc/elements/1.1/"
   xmlns:cc="http://creativecommons.org/ns#"
   xmlns:rdf="http://www.w3.org/1999/02/22-rdf-syntax-ns#"
   xmlns:svg="http://www.w3.org/2000/svg"
   xmlns="http://www.w3.org/2000/svg"
   xmlns:xlink="http://www.w3.org/1999/xlink"
   xmlns:sodipodi="http://sodipodi.sourceforge.net/DTD/sodipodi-0.dtd"
   xmlns:inkscape="http://www.inkscape.org/namespaces/inkscape"
   height="685.60596"
   viewBox="0 0 409.22522 193.49324"
   width="1450.0106"
   version="1.1"
   id="svg18"
   sodipodi:docname="geekcrypt.example.svg"
   inkscape:version="0.92.2 (5c3e80d, 2017-08-06)">
  <metadata
     id="metadata24">
    <rdf:RDF>
      <cc:Work
         rdf:about="">
        <dc:format>image/svg+xml</dc:format>
        <dc:type
           rdf:resource="http://purl.org/dc/dcmitype/StillImage" />
        <dc:title />
      </cc:Work>
    </rdf:RDF>
  </metadata>
  <defs
     id="defs22" />
  <sodipodi:namedview
     pagecolor="#ffffff"
     bordercolor="#666666"
     borderopacity="1"
     objecttolerance="10"
     gridtolerance="10"
     guidetolerance="10"
     inkscape:pageopacity="0"
     inkscape:pageshadow="2"
     inkscape:window-width="1920"
     inkscape:window-height="1021"
     id="namedview20"
     showgrid="false"
     inkscape:zoom="0.64611098"
     inkscape:cx="690.05876"
     inkscape:cy="487.77211"
     inkscape:window-x="0"
     inkscape:window-y="0"
     inkscape:window-maximized="1"
     inkscape:current-layer="layer1"
     fit-margin-top="0"
     fit-margin-left="0"
     fit-margin-right="0"
     fit-margin-bottom="0" />
  <g
     inkscape:groupmode="layer"
     id="layer1"
     inkscape:label="bg"
     transform="translate(-62.800422,-132.46205)">
    <rect
       style="fill:#ffffff;fill-rule:evenodd;stroke-width:0.28222221"
       id="rect852"
       width="408.92908"
       height="193.56682"
       x="63.364868"
       y="132.38847" />
    <image
       sodipodi:absref="/mnt/temp/githup/hyphop/geekcrypt/pics/no-print.gif"
       xlink:href="no-print.gif"
       width="189.59451"
       height="189.59451"
       preserveAspectRatio="none"
       id="image871"
       x="63.364868"
       y="133.51735" />
    <use
       x="0"
       y="0"
       xlink:href="#image871"
       id="use889"
       transform="translate(219.33456)"
       width="100%"
       height="100%" />
    <text
       xml:space="preserve"
       style="font-style:normal;font-weight:normal;font-size:21.07259178px;line-height:1.25;font-family:sans-serif;letter-spacing:0px;word-spacing:0px;fill:#000000;fill-opacity:1;stroke:none;stroke-width:0.28222221"
       x="-309.52399"
       y="91.480476"
       id="text907"
       transform="rotate(-90)"><tspan
         sodipodi:role="line"
         id="tspan905"
         x="-309.52399"
         y="91.480476"
         style="fill:#ff0000;stroke-width:0.28222221">front side</tspan></text>
    <text
       xml:space="preserve"
       style="font-style:normal;font-weight:normal;font-size:21.07259178px;line-height:1.25;font-family:sans-serif;letter-spacing:0px;word-spacing:0px;fill:#000000;fill-opacity:1;stroke:none;stroke-width:0.28222221"
       x="209.7117"
       y="-445.9064"
       id="text907-3"
       transform="rotate(90)"><tspan
         sodipodi:role="line"
         id="tspan905-6"
         x="209.7117"
         y="-445.9064"
         style="fill:#ff0000;stroke-width:0.28222221">back side</tspan></text>
  </g>
  <g
     inkscape:groupmode="layer"
     id="layer3"
     inkscape:label="example" />
  <g
     inkscape:groupmode="layer"
     id="layer2"
     inkscape:label="text"
     transform="translate(-62.800422,-132.46205)">
    <g
       id="g903"
       transform="translate(-0.26692264)">
      <g
         transform="matrix(0.04833617,0,0,0.04833617,243.92791,191.69231)"
         id="g1009">
        <g
           transform="matrix(0.1,0,0,-0.1,0,512)"
           id="g1007">
          <path
             inkscape:connector-curvature="0"
             d="m 3093.3,4996.7 c -452.1,-86.2 -829.4,-289.3 -1141.7,-616.8 -231.8,-243.3 -377.4,-498.1 -461.7,-800.7 -53.6,-197.3 -59.4,-603.4 -11.5,-795 19.2,-72.8 24.9,-126.4 13.4,-130.3 -61.3,-23 -277.8,-187.7 -404.2,-306.5 C 658.5,1937.5 442.1,1355.1 524.4,820.7 559,590.9 624.1,397.4 727.5,202 L 806,58.3 719.8,-106.4 c -316,-614.9 -277.7,-1252.8 109.3,-1831.3 101.5,-153.3 375.5,-421.4 526.8,-517.2 l 118.8,-76.6 -13.4,-105.4 c -9.6,-57.5 -13.4,-205 -11.5,-325.6 1.9,-270.1 47.9,-457.8 166.7,-699.2 375.5,-762.4 1241.3,-1218.3 2091.8,-1099.6 360.1,49.8 743.2,210.7 1019.1,429.1 88.1,70.9 170.5,122.6 182,116.9 13.4,-7.6 78.5,-59.4 147.5,-116.9 350.5,-293.1 892.7,-467.4 1379.2,-442.5 848.6,42.1 1572.7,584.3 1831.3,1371.6 47.9,145.6 53.7,195.4 57.5,467.4 l 5.8,304.6 136,72.8 c 565.1,308.4 942.5,844.8 1015.3,1448.2 40.2,321.8 -30.6,668.6 -203,1003.8 l -86.2,164.7 76.6,141.7 c 323.7,601.5 289.3,1268.1 -93.9,1839 -170.5,252.9 -500,538.3 -772,664.7 l -111.1,51.7 15.3,76.6 c 7.6,42.1 15.3,206.9 13.4,364 -1.9,260.5 -5.8,302.7 -55.6,450.2 -210.7,647.5 -735.6,1132.1 -1423.3,1316 -164.7,44.1 -222.2,49.8 -501.9,49.8 -281.6,0 -337.1,-5.7 -505.7,-49.8 -312.3,-84.3 -601.5,-237.5 -896.5,-475.1 L 4888.3,4447 4756,4550.4 c -252.9,203 -507.6,329.5 -827.5,411.8 -237.5,59.4 -611.1,76.7 -835.2,34.5 z m 681.9,-411.8 c 333.3,-61.3 637.9,-233.7 890.7,-505.7 128.3,-137.9 139.8,-145.6 218.4,-145.6 76.6,0 90,7.7 239.5,160.9 331.4,335.2 678.1,496.1 1120.6,515.3 982.7,46 1731.7,-630.2 1680,-1519.1 -5.7,-103.4 -28.7,-237.5 -51.7,-314.1 -69,-218.4 -28.7,-298.8 178.1,-367.8 55.6,-17.2 178.1,-70.9 272,-118.8 137.9,-70.9 206.9,-124.5 346.7,-262.4 149.4,-145.6 187.7,-199.2 264.4,-354.4 118.8,-243.3 151.3,-406.1 139.8,-689.6 C 9060.3,677.1 9008.6,525.8 8828.5,263.3 8706,85.2 8704.1,27.7 8819,-133.2 c 183.9,-258.6 260.5,-494.2 260.5,-793.1 0,-614.9 -346.7,-1097.6 -963.5,-1344.7 -143.7,-55.6 -182,-80.5 -210.7,-134.1 -36.4,-61.3 -36.4,-69 -5.7,-229.9 91.9,-486.5 -42.2,-936.7 -381.2,-1277.7 -517.2,-517.2 -1434.8,-611.1 -2065,-212.6 -70.9,46 -210.7,160.9 -308.4,258.6 -170.5,166.7 -183.9,176.2 -262.5,176.2 -76.6,0 -88.1,-7.7 -216.5,-145.6 -291.2,-312.3 -611.1,-475.1 -1040.2,-524.9 -490.4,-57.5 -992.3,99.6 -1327.5,415.7 -396.5,373.5 -540.2,886.9 -394.6,1419.4 46,170.5 13.4,226.1 -201.1,339.1 -492.3,262.4 -754.7,659 -777.7,1180 -17.2,348.6 53.6,591.9 252.9,871.6 114.9,160.9 116.9,227.9 7.7,373.5 -178.3,237.6 -266.4,502 -266.4,802.7 0,243.3 40.2,415.7 141.8,622.6 136,275.8 350.6,486.6 655.1,643.6 264.4,136 287.3,182 210.7,408 -183.9,528.7 -44.1,1082.3 371.6,1473.1 367.8,344.9 927.2,496.2 1476.9,396.6 z"
             id="path1003" />
          <path
             inkscape:connector-curvature="0"
             d="m 3323.2,1318.8 c -283.5,-63.2 -561.3,-247.1 -737.5,-490.4 l -59.4,-84.3 -237.5,-9.6 C 2058.9,724.9 2047.4,723 1997.6,671.3 1955.5,629.2 1944,600.4 1944,531.5 c 0,-74.7 9.6,-95.8 63.2,-143.7 57.5,-51.7 74.7,-55.5 205,-55.5 H 2354 L 2346.3,167.6 2340.6,0.9 2158.6,-183 C 2059,-284.5 1967,-386.1 1955.5,-409.1 c -76.6,-149.4 86.2,-331.4 243.3,-272 28.7,11.5 105.4,70.9 168.6,134.1 l 116.9,116.8 42.1,-69 c 176.2,-285.4 490.4,-511.5 802.6,-576.6 473.2,-101.5 973.1,116.9 1260.5,547.9 137.9,206.9 185.8,365.9 195.4,636 l 7.7,224.1 h 206.9 206.9 l 7.7,-233.7 c 7.7,-195.4 17.3,-258.6 61.3,-369.7 233.7,-607.2 902.2,-963.5 1473.1,-785.4 283.5,88.1 567,306.5 722.2,555.5 l 44.1,70.9 116.5,-116.8 c 63.2,-63.2 137.9,-122.6 166.6,-132.2 141.8,-53.6 295,88.1 256.7,239.4 -5.8,28.7 -97.7,137.9 -205,247.1 l -191.5,195.5 -5.7,164.8 -7.7,164.7 h 141.8 c 130.3,0 147.5,3.8 205,55.5 53.6,47.9 63.2,69 63.2,143.7 0,69 -11.5,97.7 -53.6,139.8 -51.7,51.7 -59.4,53.6 -291.2,59.4 -203,5.8 -243.3,11.5 -256.7,40.2 -40.2,74.7 -172.4,216.5 -285.4,306.5 C 6788.5,1382 6311.5,1428 5880.5,1201.9 5731.1,1123.4 5526.1,945.2 5438,818.8 l -57.5,-84.3 h -381.2 -381.2 l -57.5,84.3 c -32.6,46 -114.9,136 -183.9,199.2 -293,268.2 -689.6,381.3 -1053.5,300.8 z m 392.7,-394.6 c 398.4,-63.2 670.5,-388.9 670.5,-802.6 0,-519.1 -431,-885 -946.3,-804.6 -423.3,65.1 -682,371.6 -682,804.6 0,409.9 233.7,710.7 620.6,795 147.5,32.5 183.9,32.5 337.2,7.6 z m 2894.4,-5.8 c 394.6,-84.3 630.2,-381.2 630.2,-796.9 0,-432.9 -258.6,-739.4 -682,-804.6 -432.9,-67 -810.3,172.4 -917.6,584.2 -122.6,477 162.8,946.3 622.6,1022.9 153.3,25.1 205.1,23.2 346.8,-5.6 z"
             id="path1005" />
        </g>
      </g>
      <text
         id="text856"
         y="259.99759"
         x="268.08359"
         style="font-style:normal;font-weight:normal;font-size:13.04856396px;line-height:1.25;font-family:sans-serif;letter-spacing:0px;word-spacing:0px;fill:#000000;fill-opacity:1;stroke:none;stroke-width:0.17475756"
         xml:space="preserve"><tspan
           id="tspan858"
           style="text-align:center;text-anchor:middle;stroke-width:0.17475756"
           y="259.99759"
           x="268.08359"
           sodipodi:role="line">geek-style</tspan><tspan
           id="tspan860"
           style="text-align:center;text-anchor:middle;stroke-width:0.17475756"
           y="276.30829"
           x="268.08359"
           sodipodi:role="line">open-source</tspan><tspan
           id="tspan862"
           style="text-align:center;text-anchor:middle;stroke-width:0.17475756"
           y="292.61899"
           x="268.08359"
           sodipodi:role="line">T-shirt</tspan></text>
    </g>
    <text
       id="text1004"
       dy="0"
       style="font-style:normal;font-variant:normal;font-weight:normal;font-stretch:normal;font-size:8.04456425px;font-family:'Bitstream Vera Sans Mono';fill:#ffffff;stroke-width:0.08556996"
       font-size="15"
       y="172.99754"
       x="124.10011">
      <tspan
         id="tspan988"
         dy="9.6534767"
         x="124.10011"
         style="stroke-width:0.08556996">1F y0u C4N r34D</tspan>
      <tspan
         id="tspan990"
         dy="9.6534767"
         x="124.10011"
         style="stroke-width:0.08556996">7H15. y0u H4V3</tspan>
      <tspan
         id="tspan992"
         dy="9.6534767"
         x="124.10011"
         style="stroke-width:0.08556996">4 933K 6R41n5!</tspan>
      <tspan
         id="tspan994"
         dy="9.6534767"
         x="124.10011"
         style="stroke-width:0.08556996">pL3453 cH3Ck My</tspan>
      <tspan
         id="tspan996"
         dy="9.6534767"
         x="124.10011"
         style="stroke-width:0.08556996">4n07H3R 51d3 !</tspan>
      <tspan
         id="tspan998"
         dy="9.6534767"
         x="124.10011"
         style="stroke-width:0.08556996">7H15 15 460U7</tspan>
      <tspan
         id="tspan1000"
         dy="9.6534767"
         x="124.10011"
         style="stroke-width:0.08556996">0uR 0P3N50uRc3</tspan>
      <tspan
         id="tspan1002"
         dy="9.6534767"
         x="124.10011"
         style="stroke-width:0.08556996">7-5h1r7 c0d3 ;)</tspan>
    </text>
    <text
       id="text1132"
       dy="0"
       style="font-style:normal;font-variant:normal;font-weight:normal;font-stretch:normal;font-size:4.82901812px;font-family:'Bitstream Vera Sans Mono';fill:#66ff66;stroke-width:0.05136622"
       font-size="15"
       y="157.8716"
       x="345.496">
      <tspan
         id="tspan1100"
         style="fill:#666666;stroke-width:0.05136622"
         dy="5.7948213"
         x="345.496">#!/usr/bin/env perl</tspan>
      <tspan
         id="tspan1102"
         style="fill:#666666;stroke-width:0.05136622"
         dy="5.7948213"
         x="345.496"># its geekcrypt fork me!</tspan>
      <tspan
         id="tspan1104"
         style="fill:#666666;stroke-width:0.05136622"
         dy="5.7948213"
         x="345.496"># 1st opensource T-Shirt</tspan>
      <tspan
         id="tspan1106"
         style="fill:#666666;stroke-width:0.05136622"
         dy="5.7948213"
         x="345.496"># &lt; https://git.io/fj6Cw</tspan>
      <tspan
         id="tspan1108"
         dy="5.7948213"
         x="345.496"
         style="stroke-width:0.05136622">@_ = qw/OIZEASbTBG 0-9/;</tspan>
      <tspan
         id="tspan1110"
         dy="5.7948213"
         x="345.496"
         style="stroke-width:0.05136622">$_[$_]= &quot;$_[$_]\L$_[$_]&quot;</tspan>
      <tspan
         id="tspan1112"
         dy="5.7948213"
         x="345.496"
         style="stroke-width:0.05136622">for 0..1;my$u=$ENV{c}*1;</tspan>
      <tspan
         id="tspan1114"
         dy="5.7948213"
         x="345.496"
         style="stroke-width:0.05136622">shift and @_= reverse @_</tspan>
      <tspan
         id="tspan1116"
         dy="5.7948213"
         x="345.496"
         style="stroke-width:0.05136622">if $ARGV[0]=~/-r/;sub r{</tspan>
      <tspan
         id="tspan1118"
         dy="5.7948213"
         x="345.496"
         style="stroke-width:0.05136622">$u&gt;1?$i++%2:$u}while(&lt;&gt;)</tspan>
      <tspan
         id="tspan1120"
         dy="5.7948213"
         x="345.496"
         style="stroke-width:0.05136622">{ eval &quot;tr/$_[0]/$_[1]/&quot;</tspan>
      <tspan
         id="tspan1122"
         dy="5.7948213"
         x="345.496"
         style="stroke-width:0.05136622">;s/(\w)/r?uc$1:lc$1/sexg</tspan>
      <tspan
         id="tspan1124"
         dy="5.7948213"
         x="345.496"
         style="stroke-width:0.05136622">; print } ## hyphop ##</tspan>
      <tspan
         id="tspan1126"
         style="fill:#666666;stroke-width:0.05136622"
         dy="5.7948213"
         x="345.496">__END__ geekcrypt USAGE</tspan>
      <tspan
         id="tspan1128"
         style="fill:#666666;stroke-width:0.05136622"
         dy="5.7948213"
         x="345.496">./geekcrypt PLAIN_TEXT &gt;</tspan>
      <tspan
         id="tspan1130"
         style="fill:#666666;stroke-width:0.05136622"
         dy="5.7948213"
         x="345.496">./geekcrypt -r &lt; CRYPTED</tspan>
    </text>
  </g>
</svg>
